<svg version="1.1" id="Слой_1" xmlns="http://www.w3.org/2000/svg" x="0" y="0" viewBox="0 0 1000 1000" xml:space="preserve"><style>.st0{fill:#fff}</style><switch><g><path d="M499.6 71.7c2-3.6 4.2-7.2 6.6-10.6 1.9-2.5 7.9-2.6 10.1.2 3.1 3.8 5.6 8.1 8.1 12.4 4.4 7.5 399.5 745.4 403.5 753.9 1.1 2.4.5 6.3-.6 8.9-1.4 3.2-4.7 2.1-7.8 1.9-10.9-.4-21.8-.2-33.4-.2 1.7 4.2 3.2 7.9 4.9 12.3-1.6.1-3 .4-4.5.4-74.3 0-148.7 0-223 .1-4.1 0-5.2-2.1-6.6-5-16.9-38.1-51.6-115.9-53.7-118.1-1.8 2.5-3.5 5.1-5.4 7.5-7.8 9.9-15.5 19.8-23.4 29.6-10.5 12.9-21.3 25.7-31.9 38.6-6.4 7.8-12.6 15.8-19 23.6-1.9 2.4-3.9 4.8-5.9 7.1-4.9 5.6-9.8 5.1-14-1.3-.8-1.3-1.6-2.5-2.9-4.5-6.5 7.9-12.7 15.2-19.5 23.4-32-40.5-63.6-80.3-95.4-120.5-6.4 14.2-12.5 27.5-18.4 40.9-3.8 8.6-7 17.5-10.9 26.1-5.4 11.9-10.9 23.8-16.9 35.4-1 2-4.2 3.8-6.5 4-6.2.6-12.5.4-18.7.1-3.4-.2-5.5 1-6.2 4.1-1.6 7.4-6.2 8.9-13.5 8.9-72-.3-144-.2-216-.2h-7.6C208.3 595 344.4 340.4 481.1 84.8c2.5 3.5 4.2 6.1 6.6 9.4m24.8-26.3c-.6 0-1.1.1-1.7.1-1.4 2.5-2.9 4.9-4.3 7.5-23 43.1-45.9 86.3-69.1 129.3-2.5 4.7-2.9 8.7-1 13.6 5.1 13.2 9.6 26.7 14.4 40 22.4 61.3 44 122.8 67.4 183.7 17.9 46.6 37.4 92.5 57.3 138.3 16.8 38.7 35.3 76.7 52.6 115.3 19.9 44 39.3 88.3 58.9 132.6 1.3 3 2.5 5 6.6 5 74.3-.2 148.7-.1 223-.1 1.4 0 2.8-.2 5.9-.5C785.4 577 648.9 322.5 512.5 67.9zm-83 155c-.6-.1-1.1-.2-1.7-.2-83 155.3-166.1 310.6-249.4 466.4H615c-1-2.5-1.7-4.6-2.6-6.5-7.1-16-14.3-31.9-21.4-47.9-8.1-18.1-16.2-36.2-24.2-54.3-1.9-4.3-4.4-6.5-9.8-6.5-33.7.3-67.5.2-101.2.2h-6.2c1-3 1.7-5.2 2.6-7.3l51-119.1c2.6-6.1 2.8-12 .6-18.2-23.1-64.2-46.1-128.4-69.2-192.6-1.6-4.8-3.4-9.4-5.1-14zm-33.8 472.7c-2.4-.1-3.7-.3-5.1-.3-70.1 0-140.2 0-210.3-.1-3.7 0-5.8 1.1-7.7 4.5-17.1 32.4-34.5 64.7-51.8 97.1-6.2 11.7-12.2 23.4-18.8 35.9 2.5.2 4 .3 5.5.3 74.1 0 148.3 0 222.4.1 3.2 0 5-.8 6.4-3.9 16.1-36.5 32.4-73 48.6-109.5 3.6-7.7 7-15.5 10.8-24.1zm7.6-.3c-.3.4-.7.7-1 1.1 36.2 45.8 72.4 91.6 109.2 138 37-45.8 73.2-90.5 110.4-136.4-1.3-3.1-5.9-2.6-8.4-2.6-68.2-.1-136.4-.1-204.7-.1h-5.5zm129.6-127.1c-12.5-30.1-24.8-59.8-37.4-90.2-13.1 30.6-25.8 60.2-38.7 90.2h76.1z"/><path class="st0" d="M512.5 67.9C649 322.5 785.4 577 922.5 832.7c-3 .3-4.4.5-5.9.5-74.3 0-148.7 0-223 .1-4.1 0-5.2-2-6.6-5-19.6-44.2-39-88.5-58.9-132.6-17.3-38.5-35.8-76.5-52.6-115.3-19.8-45.8-39.4-91.7-57.3-138.3-23.4-60.9-45.1-122.4-67.4-183.7-4.9-13.3-9.4-26.8-14.4-40-1.9-5-1.5-8.9 1-13.6 23.2-43 46.1-86.2 69.1-129.3 1.4-2.5 2.9-5 4.3-7.5.6 0 1.1-.1 1.7-.1zM429.5 222.9c1.7 4.6 3.4 9.3 5.1 13.9 23.1 64.2 46.1 128.4 69.2 192.6 2.2 6.1 2 12.1-.6 18.2-17.1 39.7-34.1 79.4-51 119.1-.9 2.1-1.5 4.3-2.6 7.3h6.2c33.7 0 67.5.2 101.2-.2 5.4 0 7.9 2.1 9.8 6.5 8 18.1 16.2 36.2 24.2 54.3 7.1 16 14.3 31.9 21.4 47.9.9 2 1.6 4 2.6 6.5H178.4c83.3-155.8 166.4-311.1 249.4-466.4.6.1 1.2.2 1.7.3zM395.7 695.6c-3.8 8.5-7.2 16.4-10.6 24.2-16.2 36.5-32.5 73-48.6 109.5-1.4 3.1-3.2 3.9-6.4 3.9-74.1-.1-148.3-.1-222.4-.1-1.5 0-3-.2-5.5-.3 6.5-12.5 12.6-24.3 18.8-35.9 17.2-32.4 34.6-64.7 51.8-97.1 1.8-3.4 3.9-4.6 7.7-4.5 70.1.1 140.2.1 210.3.1 1.1-.1 2.5.1 4.9.2zM403.3 695.3h5.6c68.2 0 140.1 0 208.3.1 2.5 0 3.3 2.4 4.2 3.3-37.2 46-72.8 90-109.8 135.8-36.7-46.4-73-92.2-109.2-138 .2-.4.6-.8.9-1.2z"/></g></switch></svg>